<?xml version="1.0" encoding="utf-8"?>
<!-- Generator: Adobe Illustrator 24.1.1, SVG Export Plug-In . SVG Version: 6.00 Build 0)  -->
<svg version="1.1" id="Layer_1" xmlns="http://www.w3.org/2000/svg" xmlns:xlink="http://www.w3.org/1999/xlink" x="0px" y="0px"
	 viewBox="0 0 512 512" style="enable-background:new 0 0 512 512;" xml:space="preserve">
<style type="text/css">
	.st0{fill-rule:evenodd;clip-rule:evenodd;}
</style>
<g>
	<path class="st0" d="M464,448H48c-8.8,0-16-7.2-16-16V208c0-8.8,7.2-16,16-16h416c8.8,0,16,7.2,16,16v224
		C480,440.8,472.8,448,464,448z M48,480c-26.5,0-48-21.5-48-48V208c0-26.5,21.5-48,48-48h416c26.5,0,48,21.5,48,48v224
		c0,26.5-21.5,48-48,48H48z M64,112c0,8.8,7.2,16,16,16h352c8.8,0,16-7.2,16-16s-7.2-16-16-16H80C71.2,96,64,103.2,64,112z M128,48
		c0,8.8,7.2,16,16,16h224c8.8,0,16-7.2,16-16s-7.2-16-16-16H144C135.2,32,128,39.2,128,48z"/>
</g>
</svg>
